<?xml version="1.0" encoding="UTF-8"?>
<svg id="Layer_2" data-name="Layer 2" xmlns="http://www.w3.org/2000/svg" viewBox="0 0 230.64 281.07">
  <defs>
    <style>
      .cls-1 {
        fill: none;
      }

      .cls-1, .cls-2 {
        stroke-width: 2px;
      }

      .cls-1, .cls-2, .cls-3 {
        stroke: #000;
        stroke-miterlimit: 10;
      }

      .cls-4 {
        fill: #000;
      }

      .cls-4, .cls-5, .cls-6 {
        stroke-width: 0px;
      }

      .cls-2, .cls-3 {
        fill: #fff;
      }

      .cls-3 {
        stroke-width: 3px;
      }

      .cls-5 {
        fill: #070404;
      }

      .cls-6 {
        fill: #030202;
      }
    </style>
  </defs>
  <g id="Layer_1-2" data-name="Layer 1">
    <path class="cls-3" d="M76.55,130.28s-41.83-4.29-46.11,14.23c-.17.34,6.79,6,6.79,6,0,0,12.93-16.84,38.85-18.04-.09.25-28.62.56-41.35,21.98,0,.34,3.85,1.96,3.85,1.96,0,0,13.14-15.19,36.7-21.69l1.28-4.44Z"/>
    <path class="cls-3" d="M174.73,213.74s24.13,61.7,52.72,24.12c.19.27,8.81,23.98-14.83,33.39-2.84,1.13-5.95,1.52-8.99,1.22-6.85-.69-17.87-5.38-33.27-29.26-.62.89,7.58-11.65,4.37-29.46Z"/>
    <path class="cls-6" d="M86.23,148.75l-2.83,113.4s5.91-6.17,39.09-3.86c7.97-4.63-5.4-72.77-5.4-72.77l-28.34-48.96-2.51,12.19Z"/>
    <path class="cls-3" d="M58.72,139.77s-36.68,20.01-37.57,63.11c-.05,2.3.15,4.59.47,6.86,1.18,8.42,2.99,34.9-18.7,46.49.77.51,37.8,17.74,68.14,8.23.26,0,14.14-117.26,14.14-117.26l-26.49-7.44Z"/>
    <path class="cls-3" d="M118.71,136.57s39.01,5.76,59.58,58.73c.26.26,11.62,37.85,38.6,47.85-.54.23-80.25,22.35-80.25,22.35l-40-105.43,22.07-23.5Z"/>
    <path class="cls-3" d="M62.29,6.93c4.04-.97,61.12-14.2,93.84,4.59.89.51,1.74,1.1,2.56,1.73,7.15,5.42,51.67,38.35,58.02,89.12,1.03,8.22-2.26,16.46-8.85,21.48-8.01,6.1-22.76,12.68-49.87,15.92,0,.51-20.16-9.39-40.42-6.49-.13-.39-2.69-8.33-2.69-8.33l71.31-35.31s-12.47-23.61-53.24-50.2c-7.58-4.08-29.9-22.41-70.64-32.37-.06-.01-.07-.1-.01-.11Z"/>
    <path class="cls-3" d="M88.74,147.92s6.49,91.98,36.7,118.21c26.36,22.89,56.43,11.54,47.44-27.13,0,0-21.69,47.4-50.05-16.19-2.49-5.59-24.01-78.86-24.01-78.86l-6.26-14.24-3.83,18.2Z"/>
    <path class="cls-3" d="M70.79,209.78s13.21,61.54-28.96,50.23c0,.33,6.73,24.64,31.44,18.6,2.97-.73,5.73-2.21,8.03-4.22,5.18-4.54,11.43-14.75,10.13-43.13,1.02.36-12.93-5.09-20.65-21.47Z"/>
    <path class="cls-2" d="M62.06,6.98S22.29,46.07,7.2,103.67c-.34,1.03,41.57,32.55,51.86,34.26-2.37,3.9-18.95,30.2-24.43,43.57-5.48,13.37-14.4,51.09,19.2,70.63-1.55-1.98-9.26-31.89-5.66-51.94,2.71-15.12,13.37-35.49,18.26-46.41,2.72-6.09,9.17-25.24,9.17-25.24,0,0-26.91,75.28,3.69,101.23,9.59,8.13,30.41,9.96,55.46-12.26.69,0-72,37.71-42.17-87.77.34.69,25.67,78.8,71.06,85.37,0,0,35.86,6.21,42.54-22.27,1.07-4.57.73-9.42-1.35-13.63-3.01-6.13-9.96-12.33-25.85-3.86,7.37-1.2,19.89,9.94.22,17.59-12.15,4.72-42.34,3.94-64.33-67.99l71.31-35.31S147.77,32.01,62.06,6.98Z"/>
    <path class="cls-6" d="M63.09,125.27s-51.69-14.83-33.69-55.2c0,.26,25.2-57.86,94.89-32.14,7.2,3,42.26,22.37,61.89,51.69,0,0-46.24-63.73-122.46-82.14.24.07-1.65-.49-1.65-.49,0,0-42.21,45.73-54.28,94.52-.08.28-1,1.2-.58,2.16.47,1.07,2.29,2.17,2.29,2.17,0,0,36.52,27.59,50,32.24l.08-.19c1.66-4.06,2.84-8.29,3.52-12.62h0Z"/>
    <path class="cls-2" d="M116.4,129.72s42.86-1.89,47.14,16.63c.17.34-6.79,6-6.79,6,0,0-12.93-16.84-38.85-18.04.09.25,28.62.56,41.35,21.98,0,.34-3.85,1.96-3.85,1.96,0,0-13.14-15.19-36.7-21.69l-2.3-6.84Z"/>
    <path class="cls-1" d="M126.86,129.72l72-32.91s-3.34-50.66-106.23-94.88"/>
    <polygon class="cls-6" points="144.89 132.37 199.33 97.11 198.74 96.91 186.91 102.52 127.9 129.64 132.71 130.29 144.89 132.37"/>
    <path class="cls-4" d="M88.63,77.12c-6.44-2.05-13.8-.96-19.45,2.72-1.61,1.04-3.1,2.28-4.38,3.7-.7.78-.82,2.07,0,2.83.77.7,2.08.83,2.83,0,.66-.73,1.36-1.41,2.12-2.04.09-.08.19-.15.29-.23-.16.12-.15.12.03-.02.2-.15.39-.29.6-.43.4-.28.82-.54,1.24-.8,1.79-1.07,2.92-1.54,4.93-2.08.47-.13.95-.24,1.43-.34.24-.05.48-.09.72-.13.12-.02.24-.04.36-.06-.23.03-.22.03.02,0,.92-.1,1.83-.16,2.75-.15.49,0,.98.03,1.47.07.24.02.49.05.73.07.24.03.24.03.01,0,.12.02.24.04.36.06.97.16,1.92.39,2.86.69,1,.32,2.23-.37,2.46-1.4.25-1.09-.33-2.12-1.4-2.46h0Z"/>
    <g>
      <path class="cls-5" d="M104.44,106.69l34.19-55.03c-1.3-.65-2.64-1.22-4.03-1.72l-33.96,54.66c1.21.76,2.48,1.46,3.8,2.09Z"/>
      <path class="cls-5" d="M142.24,53.71l-33.9,54.56c3.99,1.37,8.33,2.13,12.87,2.13,19.63,0,35.55-14.05,35.55-31.39,0-10.39-5.72-19.59-14.52-25.3Z"/>
      <path class="cls-5" d="M97.25,102.19l33.23-53.49c-2.96-.7-6.06-1.09-9.27-1.09-19.63,0-35.55,14.05-35.55,31.39,0,9.18,4.47,17.44,11.59,23.18Z"/>
    </g>
    <g>
      <path class="cls-5" d="M39.49,108.64l20.94-44.8c-.79-.53-1.62-.99-2.47-1.4l-20.8,44.5c.74.62,1.52,1.19,2.33,1.7Z"/>
      <path class="cls-5" d="M62.63,65.51l-20.76,44.42c2.44,1.12,5.1,1.73,7.88,1.73,12.02,0,21.77-11.44,21.77-25.55,0-8.46-3.5-15.95-8.89-20.6Z"/>
      <path class="cls-5" d="M35.09,104.99l20.35-43.54c-1.81-.57-3.71-.88-5.68-.88-12.02,0-21.77,11.44-21.77,25.55,0,7.48,2.74,14.2,7.09,18.87Z"/>
    </g>
  </g>
</svg>